' Generated by UML Generator
' Encoded: nHfTR-EuyTs_Gi2-oDWuo0A7UmXwmJc9WmP8TeFOtIvG50KjqJOHILH9oOxlUllREqFgWwGenVRcsfVrPcOu7CttZFIhB8WeoZGPoHUMvKIGD8WI8kMqA0HRbWMzZtWsPx_Hu6AqOJ4D8YQYX8v6YYgOvddm-oW8FluEZ0eM_H74Wcsfk0nkrI-W9WrAHZIZby4SVn0niGwcX6KX4Mi9571tjlx7FyUNmPQpsERFP9wG_Km8BiAKIadMj3xXezyGEKlpOd_7Q1BBSAL-h2kMd2UKPBvR7ZN__dk-jmz7YsVEYt3rcYPTkbO92IVntRV71vVmYGYQ5IY4Caa8_-eBuQVcyqUjzXikSYv8GMyI1gUK2IOHJtEIxJ-Jj15KWHN98yc0aRZXMK6Y0XGm5OBi7vWi_g99hu9VWepk3FXLE6wiv5mObfAApBZeBCX1hXqNSGiHT4T4B9y4NuDRFT9qYNvHQViiy8WBm0E57PygL45bOGZnfykufiLDooGS6vPHE1ylfEfmmmCaZYlICDM_7iyNDELRsazNktlZJ8zCIa3TiOJENYEQ5undEgXzc4ui65wveVykAS2cKSJBoYq_kj1mx8KkIKAo2DZ6l5mcL17jMB691Tc59CsA1jC-Qi6r3BPQlQTgKnFuVwC3WnLcdm8pa15h0A5YHI8QF5POFAsUwhkFNclXCzrfgw8v1KyIAlIHsZrL9heC5lIrKFz5NEseFbpV6Geo93v4iS_fd2OqAZWO7jnloQ_vg-58tsst1rj4BvU1-W72EkWdaQ0GNFTPpBOiBabIXHdTKjJhD49tcE4VHfw3Qh5Y8jNNexiCKwiRvaKPexuEOQyEk84_U0IAcgGpr9KC8nrXHZJuugowvIlB3n89tJRf-i4r-FEB5GacH4V14Gvi-6fCSovPuQADEbO8aiaLXByT0ZLumUzlFHcXXpLal590SOhsDpoc_dETS3Wf3a5tP2b1ogZGNKWm8oA3owIfnmygBY6FFuEHQhvDfN9EQ3sxG5-oWMnyRp369sbOVoHvdknhjFcGa98RS2sNnsJzwU8-svA4nGk8MIVx-Z3UxElepDALywG8oZd88ci8bFqB5IOA2XaXfwBOG_-ciFNVLNCmPscUK1iLwfEemm-3vHG9Y9QjTJzrDPGiLgPVTfb13JUkI2ALOLC8sqsolwCKn8RB0FT92Hs3eHw8BBxaq5926dpW4Kbk0TYuW-K6G-Pl6ZJ84T2u7XW2hOVm7Ds7FriQC3q56iGdfQdGDe11icv8ngu1j1EzmD-DhkBGFlhOQWanJ7UJEm9zU0qpgA-r3cmt1_Yqjj1nEUcaeljs8Zir7vsS0FqPkSpHqsujRtFqsKMspjW6Uto3fOKBPsYgAkrjYALRcUuiaEMo-SiInZar9wi3JqwSamlK1b55pJ6tIzawnQ6yTUKywC0Q58R5_9baCK_xvD1HUKqa_VcdC2lJ0OOnMpFilbGO6wJHXeW-ffykD6NZ4pfyMbhLHlpyqoto3jKDcc55sfZuWQzPvhH-au7MRpBG-kasB46Empr8LlUStVgYv_1gGbGqrgoYZwck1prXMndEr6kLi-7OboKynnQZMPsjl08dnxjlD_YuIZXvpXkwvYATW5SimH8PJnkMTnN4POZLni9TXRKSQYejMj_j2cOuzk72JMhX5XPhImY7iKT8Kox5LN9Hk3pd2jR7qS1UXJwX5D-4u2ZxGx9sHHlhGeMwQenKkuAt5R1Hni80Ck93HqBqpW5JsHN8HrqxI4FPUgoTiAM3zFcsaRznAGEPcbZrccof2zEX-FQUmQufS8gNLjVOCraTii2myTs1nhx27gtUd_yfAvWVMggyiRBf2DWESU-miZfKD_wkfO92xz7Z9qnMtLqOLTNJJxSXyk_OrSMghHkcPVBPyqnl78BGKirus6dN3rcq-0uPZPBQ_627vP71setLtRgFNuMpjcW-XXfZF5FiZ89U_NcNRy307IDzaZaqLZCQyonhTt7eRX7BpPG4okjjXI75PitMp4mcY9YJBLxgWc64X1ISceq1OEWhF9eCUwm_4NG5K-p6JCDrdr6XT6Ot4PWijQwb2_RnGRXR66eST2jijOS-6HCNWn7mi7pRM7g2oTmZ2u9ziY2yJnOm4DnYO4ymeJlkotArOX4UkIkpM9f3VtUMD_Rx7vfMTFPjyJpzr_tdnUnvDb-uWxphpyROVSpQtrMwsQgQhEr6xAz4RkRKPLv3AzOuI_LFx0Udw_5HrCxgVsoCRRwHJVSGpHJZIH96IljRTNjdlVzK2T6pztU7RAVvyQMX3oIEXzAFq_o3ufSSqh-xYsu7OTy26JtO2w-4-yhe3fG5ak7_pAxiWDspwJ0E8wSPdEne0iq2ZDLBcW0P_jZh81U34L92IEKCqaVr10sogjVk6L_Dxzoee7EMHPqhzJB73prcYtRHziuiOvZus6_KpUVDDgkJagkz4NW7ZP-gop-NABL1snIYmM6oxbu6YPhQFqZbTBxMEvLwRNfD2Vg6zal_dhNnvwQRS_Od_Hdn_EAJ6f3Tbw9sxzQe_d_OBXv_tN7lBj--7TAD_wMafZNWZG6iUK8l5OoOsz-gZRoLqpNwAswohIv3gVkznvFJU3fwFKXnS-UfVTMZGpEWAYFGcPotEWlj9b2z4L1p7L9q0wJg0wtNJZPCBs8SsF_pvMiZkv7zjMSLvdxIsaWPlAisZR9j-pBPf5tt8MBR00kMQd_LoRdhoCfXpLRGVKA_36U1LuAnostyhkm7kXryKCjRgoT7VFz6kCVSJ4wbv14Zk4ZYtewaxtk3UWvq6k2wJRPN8_KRiNTVc9pCzhYaORxkgoOoCqRVQ8axXyAn7-p4yLdWvNj0x_kdlExnkz1fhsgwenAan2p6LjUeJOUMVVliknMYevcUKecEBU6jru35Nxhld7t8KE379hZNm6JX18__n20o5nm2ZiQjQN5jL4046iRssBZQZvacVkkLipQmTV37UxlnQJoFQU360zixEmxm6yp9vAh-ujBzDd0o-S-LhRXHvqCjHLDlhAmFLooC-pN68FBy791Eap-oaEPNLQFgFHMVJEfLZW6fxp10HgcgmUVdLvtrcsy2jZZsu4tsxTJXqQNT4Ii2E_17Ja-cI5mnE_NEnwXRExoyd4IeQ2eETloOc5zf5fTfyby
' URL: http://www.plantuml.com/plantuml/uml/nHfTR-EuyTs_Gi2-oDWuo0A7UmXwmJc9WmP8TeFOtIvG50KjqJOHILH9oOxlUllREqFgWwGenVRcsfVrPcOu7CttZFIhB8WeoZGPoHUMvKIGD8WI8kMqA0HRbWMzZtWsPx_Hu6AqOJ4D8YQYX8v6YYgOvddm-oW8FluEZ0eM_H74Wcsfk0nkrI-W9WrAHZIZby4SVn0niGwcX6KX4Mi9571tjlx7FyUNmPQpsERFP9wG_Km8BiAKIadMj3xXezyGEKlpOd_7Q1BBSAL-h2kMd2UKPBvR7ZN__dk-jmz7YsVEYt3rcYPTkbO92IVntRV71vVmYGYQ5IY4Caa8_-eBuQVcyqUjzXikSYv8GMyI1gUK2IOHJtEIxJ-Jj15KWHN98yc0aRZXMK6Y0XGm5OBi7vWi_g99hu9VWepk3FXLE6wiv5mObfAApBZeBCX1hXqNSGiHT4T4B9y4NuDRFT9qYNvHQViiy8WBm0E57PygL45bOGZnfykufiLDooGS6vPHE1ylfEfmmmCaZYlICDM_7iyNDELRsazNktlZJ8zCIa3TiOJENYEQ5undEgXzc4ui65wveVykAS2cKSJBoYq_kj1mx8KkIKAo2DZ6l5mcL17jMB691Tc59CsA1jC-Qi6r3BPQlQTgKnFuVwC3WnLcdm8pa15h0A5YHI8QF5POFAsUwhkFNclXCzrfgw8v1KyIAlIHsZrL9heC5lIrKFz5NEseFbpV6Geo93v4iS_fd2OqAZWO7jnloQ_vg-58tsst1rj4BvU1-W72EkWdaQ0GNFTPpBOiBabIXHdTKjJhD49tcE4VHfw3Qh5Y8jNNexiCKwiRvaKPexuEOQyEk84_U0IAcgGpr9KC8nrXHZJuugowvIlB3n89tJRf-i4r-FEB5GacH4V14Gvi-6fCSovPuQADEbO8aiaLXByT0ZLumUzlFHcXXpLal590SOhsDpoc_dETS3Wf3a5tP2b1ogZGNKWm8oA3owIfnmygBY6FFuEHQhvDfN9EQ3sxG5-oWMnyRp369sbOVoHvdknhjFcGa98RS2sNnsJzwU8-svA4nGk8MIVx-Z3UxElepDALywG8oZd88ci8bFqB5IOA2XaXfwBOG_-ciFNVLNCmPscUK1iLwfEemm-3vHG9Y9QjTJzrDPGiLgPVTfb13JUkI2ALOLC8sqsolwCKn8RB0FT92Hs3eHw8BBxaq5926dpW4Kbk0TYuW-K6G-Pl6ZJ84T2u7XW2hOVm7Ds7FriQC3q56iGdfQdGDe11icv8ngu1j1EzmD-DhkBGFlhOQWanJ7UJEm9zU0qpgA-r3cmt1_Yqjj1nEUcaeljs8Zir7vsS0FqPkSpHqsujRtFqsKMspjW6Uto3fOKBPsYgAkrjYALRcUuiaEMo-SiInZar9wi3JqwSamlK1b55pJ6tIzawnQ6yTUKywC0Q58R5_9baCK_xvD1HUKqa_VcdC2lJ0OOnMpFilbGO6wJHXeW-ffykD6NZ4pfyMbhLHlpyqoto3jKDcc55sfZuWQzPvhH-au7MRpBG-kasB46Empr8LlUStVgYv_1gGbGqrgoYZwck1prXMndEr6kLi-7OboKynnQZMPsjl08dnxjlD_YuIZXvpXkwvYATW5SimH8PJnkMTnN4POZLni9TXRKSQYejMj_j2cOuzk72JMhX5XPhImY7iKT8Kox5LN9Hk3pd2jR7qS1UXJwX5D-4u2ZxGx9sHHlhGeMwQenKkuAt5R1Hni80Ck93HqBqpW5JsHN8HrqxI4FPUgoTiAM3zFcsaRznAGEPcbZrccof2zEX-FQUmQufS8gNLjVOCraTii2myTs1nhx27gtUd_yfAvWVMggyiRBf2DWESU-miZfKD_wkfO92xz7Z9qnMtLqOLTNJJxSXyk_OrSMghHkcPVBPyqnl78BGKirus6dN3rcq-0uPZPBQ_627vP71setLtRgFNuMpjcW-XXfZF5FiZ89U_NcNRy307IDzaZaqLZCQyonhTt7eRX7BpPG4okjjXI75PitMp4mcY9YJBLxgWc64X1ISceq1OEWhF9eCUwm_4NG5K-p6JCDrdr6XT6Ot4PWijQwb2_RnGRXR66eST2jijOS-6HCNWn7mi7pRM7g2oTmZ2u9ziY2yJnOm4DnYO4ymeJlkotArOX4UkIkpM9f3VtUMD_Rx7vfMTFPjyJpzr_tdnUnvDb-uWxphpyROVSpQtrMwsQgQhEr6xAz4RkRKPLv3AzOuI_LFx0Udw_5HrCxgVsoCRRwHJVSGpHJZIH96IljRTNjdlVzK2T6pztU7RAVvyQMX3oIEXzAFq_o3ufSSqh-xYsu7OTy26JtO2w-4-yhe3fG5ak7_pAxiWDspwJ0E8wSPdEne0iq2ZDLBcW0P_jZh81U34L92IEKCqaVr10sogjVk6L_Dxzoee7EMHPqhzJB73prcYtRHziuiOvZus6_KpUVDDgkJagkz4NW7ZP-gop-NABL1snIYmM6oxbu6YPhQFqZbTBxMEvLwRNfD2Vg6zal_dhNnvwQRS_Od_Hdn_EAJ6f3Tbw9sxzQe_d_OBXv_tN7lBj--7TAD_wMafZNWZG6iUK8l5OoOsz-gZRoLqpNwAswohIv3gVkznvFJU3fwFKXnS-UfVTMZGpEWAYFGcPotEWlj9b2z4L1p7L9q0wJg0wtNJZPCBs8SsF_pvMiZkv7zjMSLvdxIsaWPlAisZR9j-pBPf5tt8MBR00kMQd_LoRdhoCfXpLRGVKA_36U1LuAnostyhkm7kXryKCjRgoT7VFz6kCVSJ4wbv14Zk4ZYtewaxtk3UWvq6k2wJRPN8_KRiNTVc9pCzhYaORxkgoOoCqRVQ8axXyAn7-p4yLdWvNj0x_kdlExnkz1fhsgwenAan2p6LjUeJOUMVVliknMYevcUKecEBU6jru35Nxhld7t8KE379hZNm6JX18__n20o5nm2ZiQjQN5jL4046iRssBZQZvacVkkLipQmTV37UxlnQJoFQU360zixEmxm6yp9vAh-ujBzDd0o-S-LhRXHvqCjHLDlhAmFLooC-pN68FBy791Eap-oaEPNLQFgFHMVJEfLZW6fxp10HgcgmUVdLvtrcsy2jZZsu4tsxTJXqQNT4Ii2E_17Ja-cI5mnE_NEnwXRExoyd4IeQ2eETloOc5zf5fTfyby
' Generated on: 2026-05-10T23:11:58.771560082

@startuml
skinparam classAttributeIconSize 0
hide circle

class App {
  +{static} driver: Driver
  -{static} scene: Scene
  --
  +{static} main(args: String[]): void
  +{static} displayError(message: String): void
  +{static} hasEmptyFields(fields: String[]): boolean
  +{static} displayMessage(message: String): void
  ~{static} setRoot(fxml: String): void
  -{static} loadFXML(fxml: String): Parent
  +start(stage: Stage): void
}

class CorporateClient {
  -companyName: String
  -clientManagerContacts: ArrayList<String> = new ArrayList<>()
  --
  +CorporateClient(username: String, password: String, rewardsProgramMember: boolean, companyName: String, clientManagerContacts: ArrayList<String>)
  +CorporateClient(username: String, password: String, test: boolean, rewardsProgramMember: boolean, companyName: String, clientManagerContacts: ArrayList<String>)
  +getCompanyName(): String
  +getClientManagerContacts(): ArrayList<String>
  +addManager(manager: String): void
  +removeManager(manager: String): boolean
}

class MissingFileException {
  +MissingFileException(message: String)
}

class ChequeingAccount {
  +ChequeingAccount()
  +ChequeingAccount(balance: double)
  +withdraw(amnt: double): void
  +toString(): String
  +withdraw(amnt: double, rewardable: boolean): void
  +maintain(): void
}

interface Maintainable {
  ~maintain(): void
}

class NewClientController {
  ~usernameField: TextField
  ~passwordField: TextField
  ~nameField: TextField
  ~emailField: TextField
  ~typeSelector: ComboBox<String>
  ~rewardsProgramCheck: CheckBox
  --
  -createIndividualClient(event: ActionEvent): void
  -confirmSelection(event: ActionEvent): void
  -createStudentClient(event: ActionEvent): void
  -createCorporateClient(event: ActionEvent): void
  -parseEmails(contact: String): ArrayList<String>
  -createVipClient(event: ActionEvent): void
  -cancel(): void
}

class BlankAccount {
  +BlankAccount()
  +toString(): String
  +withdraw(amnt: double): void
  +deposit(amnt: double): boolean
  +transfer(amnt: double, transferToID: String): boolean
  +deposit(amnt: double, currencyCode: String): boolean
  +maintain(): void
  +withdraw(amnt: double, rewardable: boolean): void
}

abstract class EarningsAccount {
  #interestRate: double
  --
  +EarningsAccount()
  +EarningsAccount(balance: double)
  +getInterestRate(): double
  +applyInterest(): void
  +addInterest(interest: double): void
  +maintain(): void
}

class InvalidTypeException {
  +InvalidTypeException(message: String)
}

abstract class Account {
  #balance: double
  #points: double = 0
  -pointsProperty: DoubleProperty = new SimpleDoubleProperty(points)
  #rewardsProgramMember: boolean
  #accountID: String
  -premiumOwner: boolean = false
  -monthlyFees: int = 10
  -dateLastOpened: LocalDate
  --
  +Account()
  +Account(balance: double)
  +{static} convert(amnt: double, currencyCode: String): double
  +optIntoRewardsProgram(): void
  +setPoints(points: double): void
  +getPoints(): DoubleProperty
  +makePremiumOwned(): void
  +getMonthlyFees(): int
  +waiveFees(): void
  +getBalance(): double
  +getAccountID(): String
  +withdraw(amnt: double): void
  +withdraw(amnt: double, rewardable: boolean): void
  +deposit(amnt: double): boolean
  +deposit(amnt: double, currencyCode: String): boolean
  +transfer(amnt: double, transferToID: String): boolean
  +toString(): String
  +updateDateLastOpened(): void
  +getDateLastOpened(): LocalDate
}

class IdCreator {
  +{static} createID(type: int, subtype: int): String
  +{static} createSafeID(type: int, subtype: int): String
  -{static} createTransactionID(): String
  -{static} createAccountID(subtype: int): String
  -{static} createClientID(subtype: int): String
  -{static} generateRandom(): String
  -{static} convertBase64(num: int): String
  -{static} digitConvert(num: int): char
  -{static} convertBase10(num: String): int
  -{static} parse64Digit(digit: char): int
}

class LoginController {
  -usernameField: TextField
  -passwordField: TextField
  --
  -login(event: ActionEvent): void
  -newClient(): void
}

class Driver {
  -clients: ArrayList<Client>
  -activeClient: String
  -accounts: ObservableList<Account> = FXCollections.observableArrayList()
  +filteredAccounts: FilteredList<Account> = new FilteredList<>(accounts)
  -transactions: ObservableList<Transaction> = FXCollections.observableArrayList()
  -filteredTransactions: FilteredList<Transaction> = new FilteredList<>(transactions)
  -sortedTransactions: SortedList<Transaction> = new SortedList<>(filteredTransactions)
  -latestTransactions: FilteredList<Transaction> = new FilteredList<>(sortedTransactions)
  +selectedAccount: StringProperty = new SimpleStringProperty()
  --
  +getLatestTransactions(): ObservableList<Transaction>
  +getAccounts(): ObservableList<Account>
  +getActiveClient(): String
  +setActiveClient(activeClient: String): void
  +loadData(): void
  +saveData(): void
  +login(username: String, password: String): boolean
  +logout(): void
  +createIndividualClient(username: String, password: String, name: String, contact: String): void
  +createStudentClient(username: String, password: String, name: String, contact: String): void
  +createCorporateClient(username: String, password: String, companyName: String, clientManagerContacts: ArrayList<String>, rewardsProgramMember: boolean): void
  +createVipClient(username: String, password: String, rewardsProgramMember: boolean, name: String, contact: String): void
  +deposit(amnt: double, depositToId: String): boolean
  +isPremium(clientID: String): boolean
  +hasWaivedFees(clientID: String): boolean
  +isRewardsProgramMember(clientID: String): boolean
  +getOwner(accountID: String): String
  +withdraw(amnt: double, accountID: String): void
  +getChequing(clientID: String): String
  +getAccount(accountID: String): Account
  +getClient(clientID: String): Client
  +getOwnedEarningsAccounts(clientID: String): ArrayList<String>
  +getEarningsAccount(accountID: String): EarningsAccount
  +transfer(donner: String, recipient: String, amnt: double): boolean
  +openChequeing(): void
  +openSavings(): void
  +openInvestment(): void
  +exists(ID: String): boolean
  -refreshAccounts(): void
  -refreshLatest(): void
  -saveClients(): void
  -saveAccounts(): void
  -saveTransactions(): void
  -verifyCredentials(username: String, password: String): Client
  -loadClients(): void
  -loadAccounts(): void
  -loadTransactions(): void
  -recordTransaction(donner: String, recipient: String, amnt: double): void
}

class InsufficientFundsException {
}

abstract class Client {
  #{static} EXTRA_INTEREST: double = 0
  -clientID: String
  #accounts: ArrayList<String> = new ArrayList<>()
  -username: String
  -password: String
  #transactions: HashSet<String> = new HashSet<>()
  -dateOpened: LocalDate
  --
  +Client(username: String, password: String)
  +Client(username: String, password: String, test: boolean)
  +getDateOpened(): LocalDate
  +setClientID(clientID: String): void
  +getUsername(): String
  +getPassword(): String
  +getClientID(): String
  +getAccounts(): ArrayList<String>
  #addAccount(accountID: String): void
}

class DashboardController {
  ~transferToField: TextField
  ~amntField: TextField
  ~accountsView: ListView<Account>
  ~typeSelector: ComboBox<String>
  ~transactionsView: ListView<Transaction>
  -welcomeLabel: Label
  -monthlyFeeLabel: Label
  -statusExpiredField: Label
  -contactLabel: Label
  -rewardsProgramMemberLabel: Label
  -memberSinceLabel: Label
  -pointsLabel: Label
  -points: DoubleProperty = new SimpleDoubleProperty(0)
  --
  +initialize(): void
  +openAccount(): void
  -refreshPoints(addedPoints: Number): void
  -transfer(event: ActionEvent): void
  -deposit(event: ActionEvent): void
  -withdraw(event: ActionEvent): void
  -logout(): void
}

interface InterestBearing {
  ~applyInterest(): void
}

class VipClient {
  +{static} EXTRA_INTEREST: double = 0.01
  -name: String
  -contact: String
  --
  +VipClient(username: String, password: String, rewardsProgramMember: boolean, name: String, contact: String)
  +VipClient(username: String, password: String, test: boolean, rewardsProgramMember: boolean, name: String, contact: String)
  +getName(): String
  +getContact(): String
}

class StudentClient {
  -statusExpiryDate: LocalDate
  -statusValid: boolean
  --
  +StudentClient(username: String, password: String, name: String, contact: String)
  +StudentClient(username: String, password: String, test: boolean, name: String, contact: String)
  +getStatusExpiryDate(): LocalDate
  +setStatusExpiryDate(statusExpiryDate: LocalDate): void
  +isStatusValid(): boolean
  +validateStatus(): void
}

class SavingsAccount {
  +SavingsAccount()
  +SavingsAccount(balance: double)
  +withdraw(amnt: double): void
  +toString(): String
  +withdraw(amnt: double, rewardable: boolean): void
}

class Transaction {
  -transactionID: String
  -amnt: double
  -receivingAccount: String
  -givingAccount: String
  -date: LocalDateTime
  -simpleDate: LocalDate
  --
  +Transaction(amnt: double, receivingAccount: String, givingAccount: String)
  +Transaction()
  +Transaction(amnt: double, receivingAccount: String, givingAccount: String, test: boolean)
  +getDateTime(): LocalDateTime
  +getTransactionID(): String
  +toString(): String
  +isAssociatedTo(accountID: String): boolean
}

class MissingChequingException {
}

class IndividualClient {
  +IndividualClient(username: String, password: String, name: String, contact: String)
  +IndividualClient(username: String, password: String, test: boolean, name: String, contact: String)
}

class InvestmentAccount {
  -dateOpened: LocalDate
  --
  +InvestmentAccount()
  +InvestmentAccount(balance: double, dateOpened: LocalDate)
  +getDateOpened(): LocalDate
  +withdraw(amnt: double): void
  +withdraw(amnt: double, rewardable: boolean): void
  +toString(): String
  +transfer(amnt: double, transferToID: String): boolean
}

abstract class StandardClient {
  -name: String
  -contact: String
  --
  +StandardClient(username: String, password: String, name: String, contact: String)
  +StandardClient(username: String, password: String, test: boolean, name: String, contact: String)
  +getName(): String
  +getContact(): String
}

class InvestmentLockException {
  +InvestmentLockException(remainingTime: String)
  +InvestmentLockException()
  +InvestmentLockException(providedID: String, actualID: String)
}

abstract class PremiumClient {
  -rewardsProgramMember: boolean
  --
  +PremiumClient(username: String, password: String, rewardsProgramMember: boolean)
  +PremiumClient(username: String, password: String, test: boolean, rewardsProgramMember: boolean)
  +isRewardsProgramMember(): boolean
}

App --> Driver
CorporateClient --|> PremiumClient
ChequeingAccount --|> Account
BlankAccount --|> Account
EarningsAccount --|> Account
EarningsAccount ..|> InterestBearing
Account ..|> Maintainable
Driver o-- Client
Driver o-- Account
Driver o-- Transaction
Driver ..> EarningsAccount
DashboardController o-- Account
DashboardController o-- Transaction
VipClient --|> PremiumClient
StudentClient --|> StandardClient
SavingsAccount --|> EarningsAccount
IndividualClient --|> StandardClient
InvestmentAccount --|> EarningsAccount
StandardClient --|> Client
PremiumClient --|> Client
@enduml